<svg xmlns="http://www.w3.org/2000/svg" version="1.1" xmlns:xlink="http://www.w3.org/1999/xlink" xmlns:svgjs="http://svgjs.dev/svgjs" width="1500" height="1500" viewBox="0 0 1500 1500"><rect width="1500" height="1500" fill="#ffffff"></rect><g transform="matrix(0.6666666666666666,0,0,0.6666666666666666,249.39417939945184,580.0423191772494)"><svg viewBox="0 0 396 134" data-background-color="#ffffff" preserveAspectRatio="xMidYMid meet" height="507" width="1500" xmlns="http://www.w3.org/2000/svg" xmlns:xlink="http://www.w3.org/1999/xlink"><g id="tight-bounds" transform="matrix(1,0,0,1,0.24009520147319563,0.37967227884195154)"><svg viewBox="0 0 395.52 133.2403885577837" height="133.2403885577837" width="395.52"><g><svg viewBox="0 0 395.52 133.2403885577837" height="133.2403885577837" width="395.52"><g><svg viewBox="0 0 395.52 133.2403885577837" height="133.2403885577837" width="395.52"><g id="textblocktransform"><svg viewBox="0 0 395.52 133.2403885577837" height="133.2403885577837" width="395.52" id="textblock"><g><svg viewBox="0 0 395.52 59.53166211255092" height="59.53166211255092" width="395.52"><g transform="matrix(1,0,0,1,0,0)"><svg width="395.52" viewBox="1.828871480559 -38.18 336.061128519441 50.58" height="59.53166211255092" data-palette-color="#2a160c"><path d="M22.75-33.08L22.75-33.08Q24.1-31.2 25.5-28.23 26.9-25.27 28.22-21.73 29.54-18.19 30.6-14.49 31.67-10.79 32.35-7.37 33.03-3.96 33.13-1.29L33.13-1.29Q33.15 0 31.96 0L31.96 0 26.05 0Q24.9 0 24.85-1.15L24.85-1.15Q24.76-3.88 23.97-7.79L23.97-7.79 10.64-7.79Q9.96-3.98 9.86-1.15L9.86-1.15Q9.81 0 8.62 0L8.62 0 2.83 0Q2.39 0 2.1-0.26 1.81-0.51 1.83-1.15L1.83-1.15Q1.95-3.86 2.62-7.31 3.3-10.77 4.37-14.48 5.44-18.19 6.76-21.74 8.08-25.29 9.5-28.25 10.91-31.2 12.26-33.08L12.26-33.08Q12.96-34.08 13.76-34.55 14.55-35.01 15.72-35.01L15.72-35.01 19.24-35.01Q20.43-35.01 21.24-34.55 22.05-34.08 22.75-33.08ZM17.38-27.29L17.24-27.29Q15.63-24.73 14.28-21.17 12.94-17.6 11.96-13.84L11.96-13.84 22.56-13.84Q21.53-17.6 20.19-21.17 18.85-24.73 17.38-27.29L17.38-27.29ZM53.56-5.98L53.56-5.98Q55.34-5.98 56.36-6.35 57.37-6.71 57.93-7.25 58.49-7.79 58.91-8.33L58.91-8.33Q59.3-8.81 59.56-9.06 59.81-9.3 60.28-9.4L60.28-9.4Q60.67-9.52 61.53-9.56 62.4-9.59 63.27-9.59 64.13-9.59 64.48-9.55L64.48-9.55Q64.99-9.52 65.18-9.35L65.18-9.35Q65.38-9.18 65.43-8.62L65.43-8.62Q65.5-7.84 65.51-6.76 65.52-5.69 65.48-4.91L65.48-4.91Q65.45-4.66 65.39-4.49 65.33-4.32 65.13-3.98L65.13-3.98Q64.89-3.59 64.18-2.84 63.47-2.1 62.11-1.31 60.74-0.51 58.58 0.05 56.42 0.61 53.27 0.61L53.27 0.61Q49.9 0.61 46.97-0.26 44.04-1.12 41.83-3.17 39.62-5.22 38.39-8.72 37.16-12.21 37.16-17.43L37.16-17.43Q37.16-23.24 39.17-27.31 41.18-31.37 44.89-33.5 48.61-35.62 53.68-35.62L53.68-35.62Q57.25-35.62 59.41-34.89 61.57-34.16 62.69-33.17 63.82-32.18 64.28-31.45L64.28-31.45Q64.45-31.18 64.52-30.97 64.6-30.76 64.62-30.32L64.62-30.32Q64.69-29.74 64.66-28.61 64.62-27.49 64.48-26.64L64.48-26.64Q64.38-26.1 64.16-25.93L64.16-25.93Q64.06-25.83 63.82-25.76 63.57-25.68 63.08-25.68L63.08-25.68Q62.3-25.68 61.33-25.74 60.35-25.81 59.86-25.88L59.86-25.88Q59.27-25.98 59.01-26.16 58.74-26.34 58.47-26.73L58.47-26.73Q58.03-27.37 56.96-28.2 55.88-29.03 53.42-29.03L53.42-29.03Q49.95-29.03 47.7-26.35 45.46-23.68 45.46-17.7L45.46-17.7Q45.46-11.74 47.81-8.86 50.17-5.98 53.56-5.98ZM84.15-11.69L84.15-11.69Q83.52-11.69 83.08-12.01L83.08-12.01Q82.61-12.33 81.98-12.92 81.34-13.5 80.56-14.36L80.56-14.36Q80.27-14.7 80.27-14.97L80.27-14.97Q80.27-15.23 80.56-15.58L80.56-15.58Q82.08-17.29 83.32-18.09L83.32-18.09Q83.61-18.29 84.15-18.29L84.15-18.29Q85.81-18.29 87.02-19.53 88.23-20.78 88.18-23.56L88.18-23.56Q88.15-26.56 86.7-27.76 85.25-28.96 82.73-28.96L82.73-28.96 81.56-28.96Q79.95-28.96 79.37-28.27 78.78-27.59 78.78-25.93L78.78-25.93 78.78-1.29Q78.78-0.56 78.47-0.28 78.17 0 77.44 0L77.44 0 72.24 0Q71.5 0 71.2-0.28 70.89-0.56 70.89-1.29L70.89-1.29 70.89-28.47Q70.89-30.91 71.35-32.34 71.8-33.76 73.1-34.39 74.41-35.01 76.92-35.01L76.92-35.01 82.73-35.01Q89.74-35.01 93.11-32.26 96.48-29.52 96.48-23.85L96.48-23.85Q96.48-19.6 94.71-16.92 92.94-14.23 90.12-12.96 87.3-11.69 84.15-11.69ZM123.72-1.93L123.72-1.93Q121.77-5 119.9-8.83 118.03-12.65 116.52-16.69 115-20.73 114.1-24.48 113.2-28.22 113.2-31.18L113.2-31.18Q113.2-31.81 113.47-32.18L113.47-32.18Q114.03-32.96 114.85-33.8 115.66-34.64 116.79-35.57L116.79-35.57Q117.15-35.86 117.47-35.86L117.47-35.86Q117.79-35.86 118.11-35.57L118.11-35.57Q119.25-34.64 120.06-33.8 120.86-32.96 121.43-32.18L121.43-32.18Q121.69-31.81 121.69-31.1L121.69-31.1 121.69-31.2Q121.69-29.13 122.27-26.21 122.84-23.29 123.85-20.08 124.87-16.87 126.17-13.85 127.48-10.84 128.97-8.59L128.97-8.59 129.12-8.59Q130.75-10.84 132.08-13.83 133.41-16.82 134.38-20.02 135.34-23.22 135.87-26.14 136.39-29.05 136.39-31.18L136.39-31.18 136.39-31.1Q136.39-31.81 136.64-32.18L136.64-32.18Q137.81-33.79 139.86-35.57L139.86-35.57Q140.25-35.86 140.54-35.86L140.54-35.86Q140.81-35.86 141.18-35.57L141.18-35.57Q142.28-34.64 143.06-33.8 143.84-32.96 144.4-32.18L144.4-32.18Q144.64-31.79 144.64-31.13L144.64-31.13Q144.64-28.91 144.02-25.99 143.4-23.07 142.32-19.82 141.25-16.58 139.88-13.33 138.52-10.08 137-7.14 135.49-4.2 133.97-1.93L133.97-1.93Q132.7 0 130.51 0L130.51 0 127.14 0Q124.94 0 123.72-1.93ZM113.2-31.1L113.2-31.2 113.2-31.18 113.2-31.1ZM144.64-31.13L144.64-31.18 144.64-31.1 144.64-31.13ZM157.46-25.29L157.46-1.29Q157.46-0.56 157.18-0.28 156.9 0 156.19 0L156.19 0 151.28 0Q150.6 0 150.3-0.28 150.01-0.56 150.01-1.29L150.01-1.29 150.01-32.23Q150.01-33.67 150.57-34.34 151.13-35.01 152.55-35.01L152.55-35.01 154.82-35.01Q156.07-35.01 157.18-34.68 158.29-34.35 159.55-33.2 160.8-32.06 162.48-29.65 164.15-27.25 166.52-23.1L166.52-23.1Q168.79-19.14 170.17-16.77 171.55-14.4 172.3-13.16 173.06-11.91 173.44-11.38 173.82-10.84 174.06-10.5L174.06-10.5 174.06-31.1Q174.06-31.81 174.28-32.18L174.28-32.18Q175.33-33.79 177.18-35.57L177.18-35.57Q177.55-35.86 177.8-35.86L177.8-35.86Q178.06-35.86 178.38-35.57L178.38-35.57Q179.38-34.64 180.08-33.8 180.77-32.96 181.29-32.18L181.29-32.18Q181.51-31.79 181.51-31.1L181.51-31.1 181.51-2.03Q181.51-0.93 181.09-0.46 180.68 0 179.58 0L179.58 0 177.23 0Q176.18 0 175.09-0.35 173.99-0.71 172.59-1.97 171.2-3.22 169.3-5.88 167.39-8.54 164.71-13.16L164.71-13.16Q162.44-17.09 161.08-19.41 159.73-21.73 159.02-22.91 158.31-24.1 158-24.57 157.68-25.05 157.46-25.29L157.46-25.29ZM198.79 0.59L198.79 0.59Q195.69 0.59 193.65 0.02 191.61-0.54 190.38-1.38 189.15-2.22 188.49-3.05L188.49-3.05Q188.27-3.37 188.1-3.66 187.92-3.96 187.85-4.32L187.85-4.32Q187.75-4.81 187.66-5.6 187.56-6.4 187.63-7.45L187.63-7.45Q187.66-7.89 187.8-8.06L187.8-8.06Q187.97-8.25 188.36-8.35L188.36-8.35Q189.07-8.52 190.21-8.65 191.34-8.79 191.83-8.79L191.83-8.79Q192.34-8.79 192.66-8.59 192.98-8.4 193.42-7.93L193.42-7.93Q193.91-7.42 195.1-6.63 196.3-5.83 198.79-5.83L198.79-5.83Q201.18-5.83 202.4-6.84 203.62-7.84 203.62-9.62L203.62-9.62Q203.62-10.57 203.05-11.41 202.48-12.26 200.96-13.1 199.45-13.94 196.64-14.87L196.64-14.87Q192-16.43 189.95-18.75 187.9-21.07 187.9-25.2L187.9-25.2Q187.9-28.61 189.56-30.91 191.22-33.2 194.15-34.38 197.08-35.55 200.91-35.55L200.91-35.55Q203.87-35.55 205.81-34.85 207.75-34.16 208.82-33.29 209.9-32.42 210.21-31.88L210.21-31.88Q210.41-31.57 210.47-31.41 210.53-31.25 210.56-30.98L210.56-30.98Q210.63-30.22 210.61-29.3 210.58-28.37 210.43-27.2L210.43-27.2Q210.36-26.81 210.17-26.66L210.17-26.66Q209.99-26.54 209.63-26.54L209.63-26.54Q207.26-26.49 205.97-26.78L205.97-26.78Q205.45-26.9 205.28-27.03 205.11-27.15 204.84-27.42L204.84-27.42Q204.45-27.88 203.61-28.5 202.77-29.13 200.91-29.13L200.91-29.13Q198.35-29.13 197.28-27.97 196.2-26.81 196.2-25.37L196.2-25.37Q196.2-23.66 197.79-22.69 199.37-21.73 202.79-20.51L202.79-20.51Q205.65-19.51 207.7-18.33 209.75-17.16 210.84-15.33 211.92-13.5 211.92-10.5L211.92-10.5Q211.92-6.76 210.2-4.3 208.48-1.83 205.51-0.62 202.55 0.59 198.79 0.59ZM232.97-25.61L232.97-25.61Q236.53-25.61 238.84-24.01 241.14-22.41 242.28-19.62 243.42-16.82 243.42-13.21L243.42-13.21Q243.42-9.3 242.08-6.18 240.75-3.05 238.17-1.22 235.58 0.61 231.75 0.61L231.75 0.61Q229.77 0.61 228.49 0.16 227.2-0.29 226.44-0.92 225.67-1.54 225.23-2.05L225.23-2.05 225.13-2.05 225.13 8.35Q225.13 8.94 224.88 9.25L224.88 9.25Q223.86 10.6 221.88 12.16L221.88 12.16Q221.54 12.4 221.27 12.4L221.27 12.4Q220.98 12.4 220.66 12.16L220.66 12.16Q219.61 11.35 218.89 10.64 218.17 9.94 217.66 9.25L217.66 9.25Q217.41 8.94 217.41 8.35L217.41 8.35 217.41-21.75Q217.41-22.34 217.66-22.66L217.66-22.66Q218.17-23.34 218.89-24.05 219.61-24.76 220.66-25.56L220.66-25.56Q220.98-25.81 221.32-25.81L221.32-25.81Q221.64-25.81 221.98-25.56L221.98-25.56Q223-24.76 223.74-24.02 224.47-23.29 225.03-22.51L225.03-22.51 225.15-22.51Q225.57-23.02 226.42-23.75 227.28-24.49 228.85-25.05 230.43-25.61 232.97-25.61ZM229.96-5.62L229.96-5.62Q232.6-5.62 234.05-7.46 235.5-9.3 235.5-12.79L235.5-12.79Q235.5-19.38 230.09-19.38L230.09-19.38Q227.79-19.38 226.69-18.44 225.59-17.5 225.13-16.46L225.13-16.46 225.13-11.16Q225.13-8.79 226.35-7.2 227.57-5.62 229.96-5.62ZM256.38-22.17L256.38-20.36 256.47-20.36Q258.31-25.44 263.07-25.44L263.07-25.44Q263.68-25.44 264.07-25.38 264.46-25.32 264.6-25.27L264.6-25.27Q264.97-25.15 264.97-24.71L264.97-24.71 264.97-18.82Q264.97-18.07 264.09-18.41L264.09-18.41Q263.8-18.53 263.25-18.66 262.7-18.8 261.72-18.8L261.72-18.8Q259.21-18.8 257.79-16.96 256.38-15.11 256.38-11.94L256.38-11.94 256.38-1.29Q256.38-0.56 256.07-0.28 255.77 0 255.03 0L255.03 0 250 0Q249.27 0 248.97-0.28 248.66-0.56 248.66-1.29L248.66-1.29 248.66-21.75Q248.66-22.34 248.91-22.66L248.91-22.66Q249.42-23.34 250.14-24.05 250.86-24.76 251.91-25.56L251.91-25.56Q252.1-25.71 252.3-25.76 252.49-25.81 252.64-25.81L252.64-25.81Q252.98-25.81 253.32-25.56L253.32-25.56Q255.35-23.97 256.16-22.85L256.16-22.85Q256.38-22.56 256.38-22.17L256.38-22.17ZM267.48-33.2L267.48-33.2Q267.48-33.52 267.68-33.76 267.87-34.01 268.19-34.4L268.19-34.4Q268.87-35.18 269.78-36.05 270.68-36.91 271.61-37.72L271.61-37.72Q272.19-38.18 272.49-38.18L272.49-38.18Q272.78-38.18 273.39-37.72L273.39-37.72Q275.37-36.01 276.76-34.4L276.76-34.4Q277.08-34.03 277.28-33.78 277.49-33.52 277.49-33.2L277.49-33.2Q277.49-32.89 277.28-32.64 277.08-32.4 276.74-31.98L276.74-31.98Q276.08-31.23 275.2-30.36 274.32-29.49 273.39-28.71L273.39-28.71Q273.05-28.42 272.85-28.33 272.66-28.25 272.49-28.25L272.49-28.25Q272.32-28.25 272.13-28.33 271.95-28.42 271.56-28.71L271.56-28.71Q270.58-29.49 269.73-30.36 268.87-31.23 268.19-32.03L268.19-32.03Q267.87-32.42 267.68-32.65 267.48-32.89 267.48-33.2ZM276.32-23.71L276.32-1.29Q276.32-0.56 276.02-0.28 275.71 0 274.98 0L274.98 0 269.95 0Q269.22 0 268.91-0.28 268.61-0.56 268.61-1.29L268.61-1.29 268.61-23.71Q268.61-24.44 268.91-24.72 269.22-25 269.95-25L269.95-25 274.98-25Q275.71-25 276.02-24.72 276.32-24.44 276.32-23.71L276.32-23.71ZM307.13-15.55L307.13-15.55 307.13-1.29Q307.13-0.56 306.82-0.28 306.52 0 305.79 0L305.79 0 300.76 0Q300.02 0 299.72-0.28 299.41-0.56 299.41-1.29L299.41-1.29 299.41-14.28Q299.41-16.94 298.29-18.16 297.17-19.38 295.24-19.38L295.24-19.38Q293.31-19.38 292.27-18.55 291.23-17.72 290.67-16.46L290.67-16.46 290.67-1.29Q290.67-0.56 290.37-0.28 290.06 0 289.33 0L289.33 0 284.3 0Q283.57 0 283.26-0.28 282.96-0.56 282.96-1.29L282.96-1.29 282.96-21.75Q282.96-22.34 283.2-22.66L283.2-22.66Q283.72-23.34 284.44-24.05 285.16-24.76 286.21-25.56L286.21-25.56Q286.52-25.81 286.82-25.81L286.82-25.81Q287.08-25.81 287.43-25.56L287.43-25.56Q288.45-24.76 289.18-24.02 289.92-23.29 290.48-22.51L290.48-22.51 290.6-22.51Q291.02-23.05 291.85-23.77 292.68-24.49 294.18-25.05 295.68-25.61 298.02-25.61L298.02-25.61Q300.32-25.61 302.39-24.68 304.47-23.75 305.8-21.56 307.13-19.36 307.13-15.55ZM337.89-22.66L337.89-22.66 337.89-2.86Q337.89 4.27 333.82 8.01 329.76 11.74 322.68 11.74L322.68 11.74Q319.75 11.74 318.04 11.32 316.33 10.89 315.45 10.5L315.45 10.5Q314.89 10.23 314.72 9.94L314.72 9.94Q314.47 9.55 314.17 8.79 313.86 8.03 313.6 7.13L313.6 7.13Q313.52 6.79 313.57 6.62L313.57 6.62Q313.67 6.37 313.94 6.1L313.94 6.1Q314.38 5.66 315.19 5.08 316.01 4.49 316.45 4.32L316.45 4.32Q316.92 4.15 317.31 4.37L317.31 4.37Q317.94 4.71 319.13 5.14 320.31 5.57 322.46 5.57L322.46 5.57Q325.88 5.57 328.02 3.81 330.17 2.05 330.17-1.61L330.17-1.61 330.17-2.49 330.08-2.49Q329.54-1.81 328.68-1.1 327.83-0.39 326.47 0.1 325.12 0.59 322.99 0.59L322.99 0.59Q319.31 0.59 316.95-1.01 314.6-2.61 313.49-5.42 312.37-8.23 312.37-11.82L312.37-11.82Q312.37-15.75 313.67-18.87 314.96-22 318.01-23.82 321.07-25.63 326.36-25.63L326.36-25.63Q329.54-25.63 331.7-25.17 333.86-24.71 335.32-24.02 336.79-23.34 337.89-22.66ZM326.1-19.73L326.1-19.73Q323.26-19.73 321.77-17.82 320.29-15.92 320.29-11.91L320.29-11.91Q320.29-5.64 325.46-5.64L325.46-5.64Q327.49-5.64 328.56-6.47 329.64-7.3 330.17-8.57L330.17-8.57 330.17-18.65Q329.64-19.04 328.66-19.38 327.68-19.73 326.1-19.73Z" opacity="1" transform="matrix(1,0,0,1,0,0)" fill="#000000" class="wordmark-text-0" data-fill-palette-color="primary" id="text-0"></path></svg></g></svg></g><g transform="matrix(1,0,0,1,0,87.63965544231607)"><svg viewBox="0 0 395.52 45.600733115467634" height="45.600733115467634" width="395.52"><path d="M395.52 0l-7.6 22.8 7.6 22.801h-395.52l7.6-22.801-7.6-22.8z" data-fill-palette-color="tertiary" opacity="1" fill="#000000"></path><g transform="matrix(1,0,0,1,75.54432,14.053996664882572)"><svg width="244.43135999999998" viewBox="0.7 -39.81666666666 723.9799999999999 51.81666666666" height="17.492739785702494" data-palette-color="#ffffff"><path d="M4.65 0.2L4.65 0.2Q3.1 0.2 1.9-0.55 0.7-1.3 0.7-3.05L0.7-3.05Q0.7-5.8 1.88-8.65 3.05-11.5 4.78-14.28 6.5-17.05 8.22-19.7 9.95-22.35 11.13-24.75 12.3-27.15 12.3-29.2L12.3-29.2Q12.3-30.85 11.5-30.85L11.5-30.85Q10.95-30.85 10.25-29.98 9.55-29.1 9.25-27.4L9.25-27.4 8.7-27.5Q8.7-30.35 10.05-32.33 11.4-34.3 13.5-35.3 15.6-36.3 17.8-36.3L17.8-36.3Q20.35-36.3 22.58-34.85 24.8-33.4 25.65-30.25L25.65-30.25Q26-29 26.18-27.45 26.35-25.9 26.4-24.78 26.45-23.65 26.45-23.65L26.45-23.65Q26.55-19.6 26.63-16.8 26.7-14 26.9-12.1 27.1-10.2 27.45-8.9L27.45-8.9Q27.8-7.65 28.38-6.88 28.95-6.1 29.85-6.1L29.85-6.1Q30.7-6.1 31.33-6.6 31.95-7.1 32.15-7.55L32.15-7.55 32.5-7.3Q32.5-5 31.6-3.3 30.7-1.6 29.25-0.7 27.8 0.2 26.2 0.2L26.2 0.2Q24.65 0.2 23.18-0.73 21.7-1.65 20.6-3.6 19.5-5.55 19.15-8.65L19.15-8.65Q17.6-8.75 16.13-8.83 14.65-8.9 13.45-8.9L13.45-8.9Q12.65-8.9 11.93-8.88 11.2-8.85 10.5-8.8L10.5-8.8Q10.05-7.25 9.78-5.68 9.5-4.1 9.5-2.6L9.5-2.6Q9.5-1.45 8-0.63 6.5 0.2 4.65 0.2ZM12.15-13.45L12.15-13.45Q13.4-13.8 14.8-13.93 16.2-14.05 17.8-14.05L17.8-14.05 18.9-14.05Q18.8-17.75 18.63-21.65 18.45-25.55 17.35-28.9L17.35-28.9Q16.95-25.3 15.35-21.35 13.75-17.4 12.15-13.45ZM39.45 0.2L39.45 0.2Q37.75 0.2 36.4-1.07 35.05-2.35 35.05-5.4L35.05-5.4Q35.05-7.4 35.62-9.85 36.2-12.3 37.02-14.93 37.85-17.55 38.7-20 39.55-22.45 40.1-24.45 40.65-26.45 40.65-27.6L40.65-27.6Q40.65-28.95 39.6-28.95L39.6-28.95Q38.35-28.95 37.25-27.53 36.15-26.1 34.8-23.55L34.8-23.55 34.5-23.65Q34.5-27.6 36.6-30.53 38.7-33.45 42.27-35.05 45.85-36.65 50.25-36.65L50.25-36.65Q54.7-36.65 57.47-35.13 60.25-33.6 61.57-31.18 62.9-28.75 62.9-26L62.9-26Q62.9-23.65 62.02-21.33 61.15-19 59.52-17.1 57.9-15.2 55.7-14.05 53.5-12.9 50.85-12.9L50.85-12.9Q48.1-12.9 45.15-14.3L45.15-14.3Q44.5-11.85 44-9.33 43.5-6.8 43.5-4.15L43.5-4.15Q43.5-2.85 43.65-1.55L43.65-1.55Q42.8-0.7 41.67-0.25 40.55 0.2 39.45 0.2ZM47.45-17.9L47.45-17.9Q49.45-17.9 50.95-19.03 52.45-20.15 53.27-21.88 54.1-23.6 54.1-25.35L54.1-25.35Q54.1-27.4 52.77-29 51.45-30.6 48.45-30.6L48.45-30.6Q48.05-30.6 47.52-30.55 47-30.5 46.45-30.4L46.45-30.4Q46.85-29.15 46.97-27.93 47.1-26.7 47.1-25.55L47.1-25.55Q47.1-23.55 46.8-21.7 46.5-19.85 46.1-18.05L46.1-18.05Q46.8-17.9 47.45-17.9ZM69.2 0.25L69.2 0.25Q67.8 0.25 66.72-0.93 65.65-2.1 65.65-5.3L65.65-5.3Q65.65-5.85 65.67-6.28 65.7-6.7 65.7-6.9L65.7-6.9Q65.9-8.9 66.27-11.88 66.65-14.85 67.15-18.13 67.65-21.4 68.17-24.45 68.7-27.5 69.15-29.78 69.6-32.05 69.9-32.9L69.9-32.9Q70.45-34.4 71.87-35.27 73.3-36.15 74.8-36.15L74.8-36.15Q76.1-36.15 77.17-35.4 78.25-34.65 78.65-32.85L78.65-32.85Q78.35-31.85 77.7-29.33 77.05-26.8 76.3-23.15 75.55-19.5 74.87-15.1 74.2-10.7 73.8-5.9L73.8-5.9Q73.75-5.05 73.65-3.93 73.55-2.8 73.5-1.65L73.5-1.65Q72.9-1 71.7-0.38 70.5 0.25 69.2 0.25ZM100.04 0.35L100.04 0.35Q96.74 0.35 94.47-1.15 92.19-2.65 91.04-5.08 89.89-7.5 89.89-10.3L89.89-10.3Q89.89-12.95 90.92-15.6 91.94-18.25 93.94-20.48 95.94-22.7 98.82-24.03 101.69-25.35 105.44-25.35L105.44-25.35Q109.14-25.35 110.94-23.88 112.74-22.4 112.74-20.65L112.74-20.65Q112.74-18.8 110.89-17.25 109.04-15.7 105.49-15.7L105.49-15.7Q105.69-16.45 105.82-17.23 105.94-18 105.94-18.7L105.94-18.7Q105.94-19.75 105.49-20.48 105.04-21.2 103.89-21.2L103.89-21.2Q102.84-21.2 101.67-20.25 100.49-19.3 99.67-17.45 98.84-15.6 98.84-12.9L98.84-12.9Q98.84-10.25 99.72-8.6 100.59-6.95 101.99-6.23 103.39-5.5 104.94-5.5L104.94-5.5Q106.99-5.5 108.89-6.58 110.79-7.65 111.64-9.55L111.64-9.55 112.14-9.35Q112.14-6.75 110.97-4.93 109.79-3.1 107.94-1.93 106.09-0.75 103.99-0.2 101.89 0.35 100.04 0.35ZM119.84 0.2L119.84 0.2Q117.69 0.2 116.39-1.25 115.09-2.7 115.09-5.2L115.09-5.2Q115.09-6.55 115.44-8.72 115.79-10.9 116.31-13.53 116.84-16.15 117.34-18.88 117.84-21.6 118.19-24.15 118.54-26.7 118.54-28.65L118.54-28.65Q118.54-31.1 117.89-32.2L117.89-32.2 117.89-32.5Q118.99-33.75 120.29-34.35 121.59-34.95 122.84-34.95L122.84-34.95Q124.74-34.95 126.09-33.6 127.44-32.25 127.44-29.55L127.44-29.55Q127.44-28.1 127.04-26 126.64-23.9 126.09-21.6 125.54-19.3 124.99-17.3L124.99-17.3Q125.94-19.15 127.51-20.98 129.09-22.8 131.11-24 133.14-25.2 135.34-25.2L135.34-25.2Q137.84-25.2 138.71-23.65 139.59-22.1 139.59-19.8L139.59-19.8Q139.59-17.7 139.14-15.33 138.69-12.95 138.24-10.78 137.79-8.6 137.79-7.15L137.79-7.15Q137.79-5.05 139.04-5.05L139.04-5.05Q139.59-5.05 140.01-5.38 140.44-5.7 140.64-6.1L140.64-6.1 140.99-5.85Q140.99-3.9 140.04-2.55 139.09-1.2 137.61-0.5 136.14 0.2 134.59 0.2L134.59 0.2Q132.54 0.2 130.89-1.18 129.24-2.55 129.24-5.65L129.24-5.65Q129.24-7.4 129.71-9.45 130.19-11.5 130.64-13.43 131.09-15.35 131.09-16.65L131.09-16.65Q131.09-18.35 129.89-18.35L129.89-18.35Q128.79-18.35 127.49-17.25 126.19-16.15 125.21-14.5 124.24-12.85 123.94-11.25L123.94-11.25Q123.84-10.85 123.84-10.3L123.84-10.3Q123.84-9.05 124.21-7.9 124.59-6.75 124.59-5.2L124.59-5.2Q124.59-2.9 123.39-1.35 122.19 0.2 119.84 0.2ZM154.54 0.35L154.54 0.35Q150.79 0.35 148.34-1.15 145.89-2.65 144.71-5.13 143.54-7.6 143.54-10.4L143.54-10.4Q143.54-13.05 144.51-15.7 145.49-18.35 147.36-20.53 149.24-22.7 151.94-24.03 154.64-25.35 158.14-25.35L158.14-25.35Q161.89-25.35 164.31-23.83 166.74-22.3 167.91-19.8 169.09-17.3 169.09-14.45L169.09-14.45Q169.09-11.85 168.14-9.22 167.19-6.6 165.31-4.42 163.44-2.25 160.74-0.95 158.04 0.35 154.54 0.35ZM155.89-3.9L155.89-3.9Q157.24-3.9 158.14-5.3 159.04-6.7 159.49-8.88 159.94-11.05 159.94-13.3L159.94-13.3Q159.94-15.3 159.56-17.07 159.19-18.85 158.44-19.98 157.69-21.1 156.49-21.1L156.49-21.1Q155.19-21.1 154.26-19.7 153.34-18.3 152.89-16.15 152.44-14 152.44-11.7L152.44-11.7Q152.44-9.7 152.81-7.93 153.19-6.15 153.94-5.03 154.69-3.9 155.89-3.9ZM187.63 0.2L187.63 0.2Q185.38 0.2 183.86-1.65 182.33-3.5 182.33-6.6L182.33-6.6Q182.33-8.3 182.73-10.25 183.13-12.2 183.53-13.95L183.53-13.95Q183.88-15.25 184.11-16.38 184.33-17.5 184.33-18.2L184.33-18.2Q184.33-19.1 183.96-19.5 183.58-19.9 183.08-19.9L183.08-19.9Q182.58-19.9 182.08-19.58 181.58-19.25 181.28-18.6L181.28-18.6 180.88-18.75Q180.88-20.8 181.88-22.25 182.88-23.7 184.43-24.45 185.98-25.2 187.58-25.2L187.58-25.2Q188.88-25.2 190.08-24.68 191.28-24.15 192.06-23.05 192.83-21.95 192.83-20.3L192.83-20.3Q192.83-19.3 192.56-17.9 192.28-16.5 191.93-15L191.93-15Q191.58-13.45 191.26-11.88 190.93-10.3 190.93-9.1L190.93-9.1Q190.93-8 191.28-7.3 191.63-6.6 192.33-6.6L192.33-6.6Q193.63-6.6 195.26-9 196.88-11.4 197.88-15.45L197.88-15.45Q198.08-16.25 198.23-17.15 198.38-18.05 198.38-19L198.38-19Q198.38-19.75 198.28-20.53 198.18-21.3 197.98-22.1L197.98-22.1 197.98-22.45Q198.78-23.8 200.06-24.5 201.33-25.2 202.63-25.2L202.63-25.2Q203.23-25.2 203.83-25.05L203.83-25.05Q205.53-25.85 206.08-26.9 206.63-27.95 206.63-29L206.63-29Q206.63-30.45 206.33-31.85L206.33-31.85Q207.03-32.1 207.63-32.18 208.23-32.25 208.73-32.25L208.73-32.25Q210.58-32.25 211.51-31.6 212.43-30.95 212.76-30.08 213.08-29.2 213.08-28.4L213.08-28.4Q213.08-26.25 211.46-24.68 209.83-23.1 206.83-22.5L206.83-22.5Q206.98-22.05 207.08-21.55 207.18-21.05 207.18-20.5L207.18-20.5Q207.18-19.15 206.68-17.38 206.18-15.6 205.58-13.7L205.58-13.7Q204.98-11.85 204.48-10.05 203.98-8.25 203.98-6.85L203.98-6.85Q203.98-4.8 205.43-4.8L205.43-4.8Q205.83-4.8 206.41-5.03 206.98-5.25 207.48-5.95L207.48-5.95 207.83-5.85Q207.83-4.05 206.86-2.68 205.88-1.3 204.38-0.55 202.88 0.2 201.28 0.2L201.28 0.2Q199.23 0.2 197.61-1.3 195.98-2.8 195.98-6.2L195.98-6.2 195.98-6.3Q193.93-2.8 191.73-1.3 189.53 0.2 187.63 0.2ZM194.93-27.05L194.93-27.05Q193.53-26.4 192.76-26.9 191.98-27.4 191.98-28.45L191.98-28.45Q193.23-29.95 194.31-32.02 195.38-34.1 196.03-36.13 196.68-38.15 196.53-39.55L196.53-39.55Q197.83-39.95 199.26-39.75 200.68-39.55 201.81-38.83 202.93-38.1 203.38-36.88 203.83-35.65 203.13-34.05L203.13-34.05Q202.58-32.75 201.66-31.6 200.73-30.45 199.13-29.35 197.53-28.25 194.93-27.05ZM216.28 0.15L216.28 0.15Q214.43 0.15 212.93-1.33 211.43-2.8 211.43-5.45L211.43-5.45Q211.43-6.75 211.78-8.4 212.13-10.05 212.55-11.75 212.98-13.45 213.33-14.95 213.68-16.45 213.68-17.4L213.68-17.4Q213.68-18.4 213.28-18.98 212.88-19.55 212.23-19.55L212.23-19.55Q211.38-19.55 210.38-18.55L210.38-18.55 210.08-18.75Q210.03-19.55 210.43-20.65 210.83-21.75 211.65-22.78 212.48-23.8 213.78-24.5 215.08-25.2 216.88-25.2L216.88-25.2Q219.53-25.2 220.8-23.68 222.08-22.15 222.08-19.95L222.08-19.95Q222.08-19.15 221.93-18.4L221.93-18.4Q222.98-19.95 224.53-21.53 226.08-23.1 227.95-24.15 229.83-25.2 231.83-25.2L231.83-25.2Q234.18-25.2 235.03-23.7 235.88-22.2 235.88-19.95L235.88-19.95Q235.88-17.85 235.43-15.45 234.98-13.05 234.53-10.83 234.08-8.6 234.08-7.1L234.08-7.1Q234.08-5.1 235.23-5.1L235.23-5.1Q235.83-5.1 236.28-5.48 236.73-5.85 236.88-6.2L236.88-6.2 237.23-6.05Q237.23-4.2 236.2-2.8 235.18-1.4 233.63-0.63 232.08 0.15 230.48 0.15L230.48 0.15Q228.53 0.15 227.03-1.2 225.53-2.55 225.53-5.6L225.53-5.6Q225.53-7.4 226-9.5 226.48-11.6 226.93-13.55 227.38-15.5 227.38-16.75L227.38-16.75Q227.38-17.5 227.1-17.93 226.83-18.35 226.13-18.35L226.13-18.35Q224.98-18.35 223.6-17.3 222.23-16.25 221.25-14.5 220.28-12.75 220.28-10.65L220.28-10.65Q220.28-9.3 220.6-8.05 220.93-6.8 220.93-5.35L220.93-5.35Q220.93-2.65 219.53-1.25 218.13 0.15 216.28 0.15ZM252.03 10L252.03 10Q249.57 10 247.97 8.55 246.38 7.1 246.38 4.45L246.38 4.45Q246.38 1.6 248.38-2.25L248.38-2.25Q248.03-2.15 247.68-2.1 247.32-2.05 246.97-2.05L246.97-2.05Q244.07-2.05 242.1-4.58 240.13-7.1 240.13-11.6L240.13-11.6Q240.13-15.65 241.7-18.75 243.28-21.85 245.72-23.6 248.18-25.35 250.82-25.35L250.82-25.35Q252.68-25.35 254.18-24.43 255.68-23.5 256.63-21.45L256.63-21.45Q256.68-21.95 256.68-22.35 256.68-22.75 256.68-23.1L256.68-23.1Q256.68-23.95 257.98-24.5 259.27-25.05 260.88-25.05L260.88-25.05Q262.32-25.05 263.57-24.5 264.82-23.95 265.23-22.65L265.23-22.65 265.32-22.35Q264.88-21.95 264.55-19.75 264.23-17.55 263.77-13.65L263.77-13.65Q263.48-11.2 263.02-8.08 262.57-4.95 261.8-1.78 261.02 1.4 259.77 4.08 258.52 6.75 256.63 8.38 254.72 10 252.03 10ZM250.38-7.8L250.38-7.8Q251.82-7.8 253.6-10.18 255.38-12.55 256.43-17L256.43-17Q255.53-18.95 254.6-19.78 253.68-20.6 252.72-20.6L252.72-20.6Q251.47-20.6 250.38-19.35 249.28-18.1 248.6-16.18 247.93-14.25 247.93-12.2L247.93-12.2Q247.93-10.1 248.63-8.95 249.32-7.8 250.38-7.8ZM249.78 4.25L249.78 4.25Q251.47 4.25 253.25 0.93 255.03-2.4 255.72-8.45L255.72-8.45Q251.93-3.3 250.45-0.53 248.97 2.25 248.97 3.4L248.97 3.4Q248.97 4.25 249.78 4.25ZM283.87 0.2L283.87 0.2Q282.07 0.2 280.5-1.05 278.92-2.3 277.95-4.7 276.97-7.1 276.97-10.5L276.97-10.5Q276.97-14 277.97-16.75 278.97-19.5 280.6-21.43 282.22-23.35 284.15-24.35 286.07-25.35 287.92-25.35L287.92-25.35Q289.97-25.35 291.57-24.08 293.17-22.8 293.77-20.1L293.77-20.1Q294.22-22.6 294.55-24.88 294.87-27.15 294.87-28.9L294.87-28.9Q294.87-31.2 294.27-32.25L294.27-32.25 294.27-32.55Q295.42-33.85 296.8-34.48 298.17-35.1 299.42-35.1L299.42-35.1Q301.07-35.1 302.22-34.08 303.37-33.05 303.37-31.15L303.37-31.15Q303.37-30.1 303.02-28.05 302.67-26 302.17-23.38 301.67-20.75 301.15-17.98 300.62-15.2 300.27-12.68 299.92-10.15 299.92-8.3L299.92-8.3Q299.92-6.75 300.25-5.83 300.57-4.9 301.32-4.9L301.32-4.9Q301.87-4.9 302.45-5.28 303.02-5.65 303.22-6.15L303.22-6.15 303.57-5.9Q303.57-4.25 302.52-2.88 301.47-1.5 299.87-0.65 298.27 0.2 296.57 0.2L296.57 0.2Q294.72 0.2 293.65-0.83 292.57-1.85 292.12-3.45 291.67-5.05 291.62-6.75L291.62-6.75Q290.07-3.15 288-1.48 285.92 0.2 283.87 0.2ZM287.22-6.15L287.22-6.15Q288.52-6.15 290.12-8.5 291.72-10.85 292.92-15.35L292.92-15.35 293.22-16.9Q292.42-18.75 291.5-19.53 290.57-20.3 289.72-20.3L289.72-20.3Q288.47-20.3 287.37-18.93 286.27-17.55 285.6-15.43 284.92-13.3 284.92-10.95L284.92-10.95Q284.92-8.7 285.57-7.43 286.22-6.15 287.22-6.15ZM312.47 0.2L312.47 0.2Q310.22 0.2 308.69-1.65 307.17-3.5 307.17-6.6L307.17-6.6Q307.17-8.3 307.57-10.25 307.97-12.2 308.37-13.95L308.37-13.95Q308.72-15.25 308.94-16.38 309.17-17.5 309.17-18.2L309.17-18.2Q309.17-19.1 308.79-19.5 308.42-19.9 307.92-19.9L307.92-19.9Q307.42-19.9 306.92-19.58 306.42-19.25 306.12-18.6L306.12-18.6 305.72-18.75Q305.72-20.8 306.72-22.25 307.72-23.7 309.27-24.45 310.82-25.2 312.42-25.2L312.42-25.2Q313.72-25.2 314.92-24.68 316.12-24.15 316.89-23.05 317.67-21.95 317.67-20.3L317.67-20.3Q317.67-19.3 317.39-17.9 317.12-16.5 316.77-15L316.77-15Q316.42-13.45 316.09-11.88 315.77-10.3 315.77-9.1L315.77-9.1Q315.77-8 316.12-7.3 316.47-6.6 317.17-6.6L317.17-6.6Q318.47-6.6 320.09-9 321.72-11.4 322.72-15.45L322.72-15.45Q322.92-16.25 323.07-17.15 323.22-18.05 323.22-19L323.22-19Q323.22-19.75 323.12-20.53 323.02-21.3 322.82-22.1L322.82-22.1 322.82-22.45Q323.62-23.8 324.89-24.5 326.17-25.2 327.47-25.2L327.47-25.2Q329.22-25.2 330.62-24 332.02-22.8 332.02-20.5L332.02-20.5Q332.02-19.15 331.52-17.38 331.02-15.6 330.42-13.7L330.42-13.7Q329.82-11.85 329.32-10.05 328.82-8.25 328.82-6.85L328.82-6.85Q328.82-4.8 330.27-4.8L330.27-4.8Q330.67-4.8 331.24-5.03 331.82-5.25 332.32-5.95L332.32-5.95 332.67-5.85Q332.67-4.05 331.69-2.68 330.72-1.3 329.22-0.55 327.72 0.2 326.12 0.2L326.12 0.2Q324.07 0.2 322.44-1.3 320.82-2.8 320.82-6.2L320.82-6.2 320.82-6.3Q318.77-2.8 316.57-1.3 314.37 0.2 312.47 0.2ZM316.82 12L316.82 12Q315.12 12 313.99 10.75 312.87 9.5 312.97 7.65L312.97 7.65Q313.12 5.6 314.54 4.13 315.97 2.65 317.82 2.65L317.82 2.65Q319.57 2.65 320.69 3.9 321.82 5.15 321.72 7L321.72 7Q321.57 9.1 320.14 10.55 318.72 12 316.82 12ZM341.12 0.15L341.12 0.15Q339.27 0.15 337.77-1.33 336.27-2.8 336.27-5.45L336.27-5.45Q336.27-6.75 336.62-8.4 336.97-10.05 337.39-11.75 337.82-13.45 338.17-14.95 338.52-16.45 338.52-17.4L338.52-17.4Q338.52-18.4 338.12-18.98 337.72-19.55 337.07-19.55L337.07-19.55Q336.22-19.55 335.22-18.55L335.22-18.55 334.92-18.75Q334.87-19.55 335.27-20.65 335.67-21.75 336.49-22.78 337.32-23.8 338.62-24.5 339.92-25.2 341.72-25.2L341.72-25.2Q344.37-25.2 345.64-23.68 346.92-22.15 346.92-19.95L346.92-19.95Q346.92-19.15 346.77-18.4L346.77-18.4Q347.82-19.95 349.37-21.53 350.92-23.1 352.79-24.15 354.67-25.2 356.67-25.2L356.67-25.2Q359.02-25.2 359.87-23.7 360.72-22.2 360.72-19.95L360.72-19.95Q360.72-17.85 360.27-15.45 359.82-13.05 359.37-10.83 358.92-8.6 358.92-7.1L358.92-7.1Q358.92-5.1 360.07-5.1L360.07-5.1Q360.67-5.1 361.12-5.48 361.57-5.85 361.72-6.2L361.72-6.2 362.07-6.05Q362.07-4.2 361.04-2.8 360.02-1.4 358.47-0.63 356.92 0.15 355.32 0.15L355.32 0.15Q353.37 0.15 351.87-1.2 350.37-2.55 350.37-5.6L350.37-5.6Q350.37-7.4 350.84-9.5 351.32-11.6 351.77-13.55 352.22-15.5 352.22-16.75L352.22-16.75Q352.22-17.5 351.94-17.93 351.67-18.35 350.97-18.35L350.97-18.35Q349.82-18.35 348.44-17.3 347.07-16.25 346.09-14.5 345.12-12.75 345.12-10.65L345.12-10.65Q345.12-9.3 345.44-8.05 345.77-6.8 345.77-5.35L345.77-5.35Q345.77-2.65 344.37-1.25 342.97 0.15 341.12 0.15ZM376.86 10L376.86 10Q374.41 10 372.81 8.55 371.21 7.1 371.21 4.45L371.21 4.45Q371.21 1.6 373.21-2.25L373.21-2.25Q372.86-2.15 372.51-2.1 372.16-2.05 371.81-2.05L371.81-2.05Q368.91-2.05 366.94-4.58 364.96-7.1 364.96-11.6L364.96-11.6Q364.96-15.65 366.54-18.75 368.11-21.85 370.56-23.6 373.01-25.35 375.66-25.35L375.66-25.35Q377.51-25.35 379.01-24.43 380.51-23.5 381.46-21.45L381.46-21.45Q381.51-21.95 381.51-22.35 381.51-22.75 381.51-23.1L381.51-23.1Q381.51-23.95 382.81-24.5 384.11-25.05 385.71-25.05L385.71-25.05Q387.16-25.05 388.41-24.5 389.66-23.95 390.06-22.65L390.06-22.65 390.16-22.35Q389.71-21.95 389.39-19.75 389.06-17.55 388.61-13.65L388.61-13.65Q388.31-11.2 387.86-8.08 387.41-4.95 386.64-1.78 385.86 1.4 384.61 4.08 383.36 6.75 381.46 8.38 379.56 10 376.86 10ZM375.21-7.8L375.21-7.8Q376.66-7.8 378.44-10.18 380.21-12.55 381.26-17L381.26-17Q380.36-18.95 379.44-19.78 378.51-20.6 377.56-20.6L377.56-20.6Q376.31-20.6 375.21-19.35 374.11-18.1 373.44-16.18 372.76-14.25 372.76-12.2L372.76-12.2Q372.76-10.1 373.46-8.95 374.16-7.8 375.21-7.8ZM374.61 4.25L374.61 4.25Q376.31 4.25 378.09 0.93 379.86-2.4 380.56-8.45L380.56-8.45Q376.76-3.3 375.29-0.53 373.81 2.25 373.81 3.4L373.81 3.4Q373.81 4.25 374.61 4.25ZM404.71 0.2L404.71 0.2Q403.16 0.2 401.96-0.55 400.76-1.3 400.76-3.05L400.76-3.05Q400.76-5.8 401.93-8.65 403.11-11.5 404.83-14.28 406.56-17.05 408.28-19.7 410.01-22.35 411.18-24.75 412.36-27.15 412.36-29.2L412.36-29.2Q412.36-30.85 411.56-30.85L411.56-30.85Q411.01-30.85 410.31-29.98 409.61-29.1 409.31-27.4L409.31-27.4 408.76-27.5Q408.76-30.35 410.11-32.33 411.46-34.3 413.56-35.3 415.66-36.3 417.86-36.3L417.86-36.3Q420.41-36.3 422.63-34.85 424.86-33.4 425.71-30.25L425.71-30.25Q426.06-29 426.23-27.45 426.41-25.9 426.46-24.78 426.51-23.65 426.51-23.65L426.51-23.65Q426.61-19.6 426.68-16.8 426.76-14 426.96-12.1 427.16-10.2 427.51-8.9L427.51-8.9Q427.86-7.65 428.43-6.88 429.01-6.1 429.91-6.1L429.91-6.1Q430.76-6.1 431.38-6.6 432.01-7.1 432.21-7.55L432.21-7.55 432.56-7.3Q432.56-5 431.66-3.3 430.76-1.6 429.31-0.7 427.86 0.2 426.26 0.2L426.26 0.2Q424.71 0.2 423.23-0.73 421.76-1.65 420.66-3.6 419.56-5.55 419.21-8.65L419.21-8.65Q417.66-8.75 416.18-8.83 414.71-8.9 413.51-8.9L413.51-8.9Q412.71-8.9 411.98-8.88 411.26-8.85 410.56-8.8L410.56-8.8Q410.11-7.25 409.83-5.68 409.56-4.1 409.56-2.6L409.56-2.6Q409.56-1.45 408.06-0.63 406.56 0.2 404.71 0.2ZM412.21-13.45L412.21-13.45Q413.46-13.8 414.86-13.93 416.26-14.05 417.86-14.05L417.86-14.05 418.96-14.05Q418.86-17.75 418.68-21.65 418.51-25.55 417.41-28.9L417.41-28.9Q417.01-25.3 415.41-21.35 413.81-17.4 412.21-13.45ZM447.41 0.3L447.41 0.3Q444.26 0.3 441.98-0.98 439.71-2.25 438.23-4.48 436.76-6.7 436.08-9.53 435.41-12.35 435.51-15.4L435.51-15.4Q435.71-20.85 437.51-24.8 439.31-28.75 442.06-31.3 444.81-33.85 447.98-35.08 451.16-36.3 454.11-36.3L454.11-36.3Q456.61-36.3 458.63-35.48 460.66-34.65 461.86-33.08 463.06-31.5 463.06-29.25L463.06-29.25Q463.06-27.5 462.03-25.88 461.01-24.25 458.93-23.23 456.86-22.2 453.61-22.2L453.61-22.2Q454.16-23.8 454.41-25 454.66-26.2 454.66-27.05L454.66-27.05Q454.66-28.8 453.86-29.43 453.06-30.05 451.86-30.05L451.86-30.05Q450.41-30.05 449.11-29 447.81-27.95 446.78-26.18 445.76-24.4 445.16-22.25 444.56-20.1 444.46-17.9L444.46-17.9Q444.26-12.35 446.06-9.5 447.86-6.65 450.71-6.65L450.71-6.65Q452.91-6.65 455.58-8.45 458.26-10.25 460.86-13.9L460.86-13.9 461.51-13.6Q460.86-9.1 458.66-6 456.46-2.9 453.48-1.3 450.51 0.3 447.41 0.3ZM469.45 0.2L469.45 0.2Q467.75 0.2 466.4-1.07 465.05-2.35 465.05-5.4L465.05-5.4Q465.05-7.4 465.63-9.85 466.2-12.3 467.03-14.93 467.85-17.55 468.7-20 469.55-22.45 470.1-24.45 470.65-26.45 470.65-27.6L470.65-27.6Q470.65-28.95 469.6-28.95L469.6-28.95Q468.35-28.95 467.25-27.53 466.15-26.1 464.8-23.55L464.8-23.55 464.5-23.65Q464.5-27.6 466.6-30.53 468.7-33.45 472.28-35.05 475.85-36.65 480.25-36.65L480.25-36.65Q484.7-36.65 487.48-35.13 490.25-33.6 491.58-31.18 492.9-28.75 492.9-26L492.9-26Q492.9-23.65 492.03-21.33 491.15-19 489.53-17.1 487.9-15.2 485.7-14.05 483.5-12.9 480.85-12.9L480.85-12.9Q478.1-12.9 475.15-14.3L475.15-14.3Q474.5-11.85 474-9.33 473.5-6.8 473.5-4.15L473.5-4.15Q473.5-2.85 473.65-1.55L473.65-1.55Q472.8-0.7 471.68-0.25 470.55 0.2 469.45 0.2ZM477.45-17.9L477.45-17.9Q479.45-17.9 480.95-19.03 482.45-20.15 483.28-21.88 484.1-23.6 484.1-25.35L484.1-25.35Q484.1-27.4 482.78-29 481.45-30.6 478.45-30.6L478.45-30.6Q478.05-30.6 477.53-30.55 477-30.5 476.45-30.4L476.45-30.4Q476.85-29.15 476.98-27.93 477.1-26.7 477.1-25.55L477.1-25.55Q477.1-23.55 476.8-21.7 476.5-19.85 476.1-18.05L476.1-18.05Q476.8-17.9 477.45-17.9ZM518.4 0.2L518.4 0.2Q516.95 0.25 515.5-0.05 514.05-0.35 513.05-1.3L513.05-1.3Q513.1-2.55 513.02-5 512.95-7.45 512.75-10.48 512.55-13.5 512.12-16.6 511.7-19.7 511.02-22.33 510.35-24.95 509.4-26.55 508.45-28.15 507.15-28.15L507.15-28.15Q506-28.15 504.55-26.9L504.55-26.9 504.2-27.2Q505.6-31.5 507.87-33.75 510.15-36 512.6-36L512.6-36Q514.75-36 516.2-34.5 517.65-33 518.52-30.48 519.4-27.95 519.77-24.83 520.15-21.7 520.15-18.45L520.15-18.45Q520.15-15.85 519.95-13.35 519.75-10.85 519.4-8.75L519.4-8.75Q522.05-12.1 523.85-16.07 525.65-20.05 526.6-23.98 527.55-27.9 527.55-31.05L527.55-31.05Q527.55-31.65 527.5-32.27 527.45-32.9 527.35-33.4L527.35-33.4Q528.4-34.75 530.05-35.48 531.7-36.2 533.35-36.2L533.35-36.2Q534.95-36.2 536.15-35.52 537.35-34.85 537.65-33.4L537.65-33.4Q537-28.65 535.07-23.9 533.15-19.15 530.4-14.73 527.65-10.3 524.52-6.5 521.4-2.7 518.4 0.2ZM543.64 0.2L543.64 0.2Q541.79 0.2 540.27-1.3 538.75-2.8 538.75-6.05L538.75-6.05Q538.75-9.3 539.37-12.33 540-15.35 540.82-18.15 541.64-20.95 542.27-23.48 542.89-26 542.89-28.25L542.89-28.25Q542.14-28.55 541.5-28.55L541.5-28.55Q540.59-28.55 540-28 539.39-27.45 539.04-26.5L539.04-26.5 538.54-26.65Q538.59-30.15 539.57-32.23 540.54-34.3 542.09-35.2 543.64-36.1 545.29-36.1L545.29-36.1Q547.79-36.1 549.77-34.48 551.75-32.85 553.32-30.05 554.89-27.25 556.07-23.73 557.25-20.2 558.09-16.38 558.94-12.55 559.44-8.85L559.44-8.85Q559.75-10.85 560.07-13.75 560.39-16.65 560.64-19.85 560.89-23.05 560.89-25.95L560.89-25.95Q560.89-28.05 560.75-29.78 560.59-31.5 560.25-32.75L560.25-32.75 560.25-33.15Q561.54-34.6 562.87-35.35 564.19-36.1 565.34-36.1L565.34-36.1Q567.04-36.1 568.17-34.63 569.29-33.15 569.29-30.45L569.29-30.45Q569.29-28.45 568.75-25.58 568.19-22.7 567.44-19.45 566.69-16.2 566.12-13.08 565.54-9.95 565.5-7.45L565.5-7.45Q565.5-6.75 565.59-5.95 565.69-5.15 566.64-5.15L566.64-5.15Q566.69-4.95 566.69-4.85 566.69-4.75 566.69-4.65L566.69-4.65Q566.64-2.75 565.14-1.28 563.64 0.2 561.14 0.2L561.14 0.2Q559.19 0.2 557.84-0.8 556.5-1.8 555.59-3.48 554.69-5.15 554.07-7.28 553.44-9.4 552.89-11.65L552.89-11.65Q551.89-15.55 550.82-19.07 549.75-22.6 547.94-25.55L547.94-25.55Q548.04-23.55 547.79-21.18 547.54-18.8 547.27-16.38 547-13.95 547-11.7L547-11.7Q547-9.7 547.34-8.03 547.69-6.35 548.59-5.05L548.59-5.05Q548.59-2.6 547.04-1.2 545.5 0.2 543.64 0.2ZM581.94 0.3L581.94 0.3Q578.59 0.3 576.42-0.85 574.24-2 573.19-3.8 572.14-5.6 572.14-7.5L572.14-7.5Q572.14-9.35 573.04-11.03 573.94-12.7 575.62-13.8 577.29-14.9 579.59-14.9L579.59-14.9Q579.54-14.45 579.54-14.08 579.54-13.7 579.54-13.7L579.54-13.7Q579.54-10.35 580.19-8.43 580.84-6.5 581.84-5.68 582.84-4.85 583.89-4.85L583.89-4.85Q585.49-4.85 586.74-6.13 587.99-7.4 587.99-9.1L587.99-9.1Q587.99-11 586.37-12.45 584.74-13.9 582.24-15.65L582.24-15.65Q580.84-16.7 579.27-18.03 577.69-19.35 576.59-21.18 575.49-23 575.49-25.5L575.49-25.5Q575.49-28.1 576.72-30.1 577.94-32.1 579.97-33.48 581.99-34.85 584.42-35.58 586.84-36.3 589.24-36.3L589.24-36.3Q592.19-36.3 594.09-35.35 595.99-34.4 596.94-32.9 597.89-31.4 597.89-29.8L597.89-29.8Q597.89-28.3 597.07-26.93 596.24-25.55 594.64-24.7 593.04-23.85 590.69-23.85L590.69-23.85Q590.84-24.55 590.89-25.13 590.94-25.7 590.94-26.15L590.94-26.15Q590.94-28.65 589.87-29.73 588.79-30.8 587.49-30.8L587.49-30.8Q586.24-30.8 585.09-29.88 583.94-28.95 583.94-26.9L583.94-26.9Q583.94-25.15 584.87-23.9 585.79-22.65 587.27-21.7 588.74-20.75 590.39-19.85L590.39-19.85Q592.09-18.95 593.67-17.88 595.24-16.8 596.29-15.35 597.34-13.9 597.34-11.7L597.34-11.7Q597.34-9.4 596.09-7.23 594.84-5.05 592.69-3.38 590.54-1.7 587.77-0.7 584.99 0.3 581.94 0.3ZM605.04 10L605.04 10Q603.79 10 602.66 9.35 601.54 8.7 600.81 7.25 600.09 5.8 600.09 3.35L600.09 3.35Q600.09 1 600.71-1.75 601.34-4.5 602.14-7.28 602.94-10.05 603.56-12.55 604.19-15.05 604.19-17L604.19-17Q604.19-18.45 603.79-18.98 603.39-19.5 602.84-19.5L602.84-19.5Q602.34-19.5 601.84-19.2 601.34-18.9 600.99-18.5L600.99-18.5 600.64-18.7Q600.64-20.45 601.66-21.93 602.69-23.4 604.29-24.3 605.89-25.2 607.59-25.2L607.59-25.2Q609.24-25.2 610.24-24.38 611.24-23.55 611.76-22.25 612.29-20.95 612.39-19.45L612.39-19.45Q614.29-22.45 616.54-23.9 618.79-25.35 620.79-25.35L620.79-25.35Q623.49-25.35 625.36-22.8 627.24-20.25 627.24-14.9L627.24-14.9Q627.24-9.9 625.64-6.53 624.04-3.15 621.61-1.48 619.19 0.2 616.69 0.2L616.69 0.2Q614.54 0.2 612.71-1.07 610.89-2.35 609.89-4.8L609.89-4.8Q609.44-2.75 609.11-0.75 608.79 1.25 608.79 3.15L608.79 3.15Q608.79 4.2 608.91 5.2 609.04 6.2 609.34 7.2L609.34 7.2 609.34 7.5Q608.69 8.75 607.51 9.38 606.34 10 605.04 10ZM614.24-4.65L614.24-4.65Q615.44-4.65 616.34-5.6 617.24-6.55 617.89-8.08 618.54-9.6 618.86-11.35 619.19-13.1 619.19-14.75L619.19-14.75Q619.19-16.85 618.64-18.32 618.09-19.8 616.94-19.8L616.94-19.8Q615.49-19.8 613.69-16.88 611.89-13.95 610.89-8L610.89-8Q611.34-6.45 612.24-5.55 613.14-4.65 614.24-4.65ZM635.84 0.2L635.84 0.2Q634.04 0.2 632.64-1.28 631.24-2.75 631.24-5.45L631.24-5.45Q631.24-6.75 631.54-8.4 631.84-10.05 632.24-11.78 632.64-13.5 632.94-15.03 633.24-16.55 633.24-17.55L633.24-17.55Q633.24-18.6 632.86-19.23 632.49-19.85 631.89-19.85L631.89-19.85Q630.94-19.85 629.94-18.55L629.94-18.55 629.64-18.75Q629.59-19.55 629.99-20.65 630.39-21.75 631.24-22.78 632.09-23.8 633.41-24.5 634.74-25.2 636.54-25.2L636.54-25.2Q639.19-25.2 640.39-23.68 641.59-22.15 641.59-20L641.59-20Q641.59-19.65 641.56-19.28 641.54-18.9 641.49-18.55L641.49-18.55Q643.29-21.8 645.26-23.53 647.24-25.25 648.94-25.25L648.94-25.25Q650.54-25.25 651.29-24 652.04-22.75 652.04-21L652.04-21Q652.04-19.4 651.41-17.75 650.79-16.1 649.56-15.03 648.34-13.95 646.59-14L646.59-14 646.39-14.1Q646.34-15.4 645.54-16.15 644.74-16.9 643.74-16.9L643.74-16.9Q642.39-16.9 641.21-15.55 640.04-14.2 640.04-11.65L640.04-11.65Q640.04-10.1 640.39-8.3 640.74-6.5 640.74-5.25L640.74-5.25Q640.74-3.75 640.04-2.5 639.34-1.25 638.24-0.53 637.14 0.2 635.84 0.2ZM662.93-26.75L662.93-26.75Q660.93-26.75 659.66-27.98 658.38-29.2 658.38-31.05L658.38-31.05Q658.38-33.05 659.88-34.5 661.38-35.95 663.53-35.95L663.53-35.95Q665.53-35.95 666.81-34.7 668.08-33.45 668.08-31.6L668.08-31.6Q668.08-29.6 666.58-28.18 665.08-26.75 662.93-26.75ZM659.43 0.2L659.43 0.2Q657.48 0.2 655.93-1.18 654.38-2.55 654.38-5.6L654.38-5.6Q654.38-7.35 654.86-8.88 655.33-10.4 655.96-11.85 656.58-13.3 657.06-14.68 657.53-16.05 657.53-17.4L657.53-17.4Q657.53-18.6 657.13-19.13 656.73-19.65 656.18-19.65L656.18-19.65Q655.33-19.65 654.53-18.55L654.53-18.55 654.18-18.75Q654.38-20.75 655.46-22.18 656.53-23.6 658.11-24.4 659.68-25.2 661.23-25.2L661.23-25.2Q663.13-25.2 664.53-23.98 665.93-22.75 665.93-20L665.93-20Q665.93-18.35 665.46-16.53 664.98-14.7 664.36-12.9 663.73-11.1 663.26-9.55 662.78-8 662.78-6.9L662.78-6.9Q662.78-5.95 663.16-5.55 663.53-5.15 663.98-5.15L663.98-5.15Q664.43-5.15 664.86-5.43 665.28-5.7 665.48-6.05L665.48-6.05 665.83-5.95Q665.83-4.1 664.86-2.73 663.88-1.35 662.43-0.58 660.98 0.2 659.43 0.2ZM675.63 0.15L675.63 0.15Q673.78 0.15 672.28-1.33 670.78-2.8 670.78-5.45L670.78-5.45Q670.78-6.75 671.13-8.4 671.48-10.05 671.91-11.75 672.33-13.45 672.68-14.95 673.03-16.45 673.03-17.4L673.03-17.4Q673.03-18.4 672.63-18.98 672.23-19.55 671.58-19.55L671.58-19.55Q670.73-19.55 669.73-18.55L669.73-18.55 669.43-18.75Q669.38-19.55 669.78-20.65 670.18-21.75 671.01-22.78 671.83-23.8 673.13-24.5 674.43-25.2 676.23-25.2L676.23-25.2Q678.88-25.2 680.16-23.68 681.43-22.15 681.43-19.95L681.43-19.95Q681.43-19.15 681.28-18.4L681.28-18.4Q682.33-19.95 683.88-21.53 685.43-23.1 687.31-24.15 689.18-25.2 691.18-25.2L691.18-25.2Q693.53-25.2 694.38-23.7 695.23-22.2 695.23-19.95L695.23-19.95Q695.23-17.85 694.78-15.45 694.33-13.05 693.88-10.83 693.43-8.6 693.43-7.1L693.43-7.1Q693.43-5.1 694.58-5.1L694.58-5.1Q695.18-5.1 695.63-5.48 696.08-5.85 696.23-6.2L696.23-6.2 696.58-6.05Q696.58-4.2 695.56-2.8 694.53-1.4 692.98-0.63 691.43 0.15 689.83 0.15L689.83 0.15Q687.88 0.15 686.38-1.2 684.88-2.55 684.88-5.6L684.88-5.6Q684.88-7.4 685.36-9.5 685.83-11.6 686.28-13.55 686.73-15.5 686.73-16.75L686.73-16.75Q686.73-17.5 686.46-17.93 686.18-18.35 685.48-18.35L685.48-18.35Q684.33-18.35 682.96-17.3 681.58-16.25 680.61-14.5 679.63-12.75 679.63-10.65L679.63-10.65Q679.63-9.3 679.96-8.05 680.28-6.8 680.28-5.35L680.28-5.35Q680.28-2.65 678.88-1.25 677.48 0.15 675.63 0.15ZM711.38 10L711.38 10Q708.93 10 707.33 8.55 705.73 7.1 705.73 4.45L705.73 4.45Q705.73 1.6 707.73-2.25L707.73-2.25Q707.38-2.15 707.03-2.1 706.68-2.05 706.33-2.05L706.33-2.05Q703.43-2.05 701.45-4.58 699.48-7.1 699.48-11.6L699.48-11.6Q699.48-15.65 701.05-18.75 702.63-21.85 705.08-23.6 707.53-25.35 710.18-25.35L710.18-25.35Q712.03-25.35 713.53-24.43 715.03-23.5 715.98-21.45L715.98-21.45Q716.03-21.95 716.03-22.35 716.03-22.75 716.03-23.1L716.03-23.1Q716.03-23.95 717.33-24.5 718.63-25.05 720.23-25.05L720.23-25.05Q721.68-25.05 722.93-24.5 724.18-23.95 724.58-22.65L724.58-22.65 724.68-22.35Q724.23-21.95 723.9-19.75 723.58-17.55 723.13-13.65L723.13-13.65Q722.83-11.2 722.38-8.08 721.93-4.95 721.15-1.78 720.38 1.4 719.13 4.08 717.88 6.75 715.98 8.38 714.08 10 711.38 10ZM709.73-7.8L709.73-7.8Q711.18-7.8 712.95-10.18 714.73-12.55 715.78-17L715.78-17Q714.88-18.95 713.95-19.78 713.03-20.6 712.08-20.6L712.08-20.6Q710.83-20.6 709.73-19.35 708.63-18.1 707.95-16.18 707.28-14.25 707.28-12.2L707.28-12.2Q707.28-10.1 707.98-8.95 708.68-7.8 709.73-7.8ZM709.13 4.25L709.13 4.25Q710.83 4.25 712.6 0.93 714.38-2.4 715.08-8.45L715.08-8.45Q711.28-3.3 709.8-0.53 708.33 2.25 708.33 3.4L708.33 3.4Q708.33 4.25 709.13 4.25Z" opacity="1" transform="matrix(1,0,0,1,0,0)" fill="#ffffff" class="slogan-text-1" data-fill-palette-color="quaternary" id="text-1"></path></svg></g></svg></g></svg></g></svg></g></svg></g><defs></defs></svg><rect width="395.52" height="133.2403885577837" fill="none" stroke="none" visibility="hidden"></rect></g></svg></g></svg>